<svg width="114" height="141" viewBox="0 0 114 141" fill="none" xmlns="http://www.w3.org/2000/svg">
<path d="M19.0944 140.4C17.0144 140.4 15.4144 139.92 14.2944 138.96C13.2011 137.973 12.5211 136.68 12.2544 135.08V140H8.21439V112.88H5.17439C3.92106 112.88 2.98772 113.173 2.37439 113.76C1.76106 114.32 1.45439 114.987 1.45439 115.76C1.45439 116.533 1.64106 117.147 2.01439 117.6C2.41439 118.053 2.89439 118.28 3.45439 118.28C4.01439 118.28 4.46772 118.133 4.81439 117.84C5.16106 117.547 5.42772 117.253 5.61439 116.96C5.80106 116.667 5.96106 116.52 6.09439 116.52C6.22772 116.52 6.29439 116.693 6.29439 117.04C6.29439 117.36 6.00106 117.773 5.41439 118.28C4.85439 118.787 4.16106 119.04 3.33439 119.04C2.50772 119.04 1.85439 118.733 1.37439 118.12C0.894388 117.507 0.654388 116.747 0.654388 115.84C0.654388 114.907 1.04106 114.067 1.81439 113.32C2.61439 112.547 3.74772 112.16 5.21439 112.16H15.5744C18.9611 112.16 21.3611 112.64 22.7744 113.6C24.0544 114.507 24.6944 115.813 24.6944 117.52C24.6944 119.2 24.2677 120.467 23.4144 121.32C22.5877 122.173 21.4944 122.867 20.1344 123.4C21.9744 123.4 23.7344 123.973 25.4144 125.12C26.2944 125.707 27.0011 126.56 27.5344 127.68C28.0677 128.8 28.3344 130.12 28.3344 131.64C28.3344 133.16 28.0277 134.52 27.4144 135.72C26.8011 136.92 26.0011 137.84 25.0144 138.48C23.1477 139.76 21.1744 140.4 19.0944 140.4ZM15.2544 131.6C14.5611 131.6 14.0144 131.893 13.6144 132.48C13.2144 133.067 13.0144 133.68 13.0144 134.32C13.0144 134.96 13.1744 135.667 13.4944 136.44C13.8144 137.187 14.4144 137.907 15.2944 138.6C16.1744 139.267 17.2011 139.6 18.3744 139.6C19.5477 139.6 20.5344 139.333 21.3344 138.8C22.1611 138.267 22.7744 137.573 23.1744 136.72C23.9211 135.12 24.2944 133.293 24.2944 131.24C24.2944 129.16 23.7077 127.507 22.5344 126.28C21.3611 125.053 20.1344 124.44 18.8544 124.44C17.5744 124.44 15.3744 125.373 12.2544 127.24V133.84C12.3611 132.853 12.7477 132.107 13.4144 131.6C14.0811 131.067 14.7344 130.8 15.3744 130.8C16.0411 130.8 16.6411 130.92 17.1744 131.16C17.7077 131.4 17.9744 131.64 17.9744 131.88C17.9744 131.987 17.9211 132.093 17.8144 132.2C17.7344 132.28 17.6544 132.32 17.5744 132.32C17.5211 132.32 17.2944 132.2 16.8944 131.96C16.4944 131.72 15.9477 131.6 15.2544 131.6ZM12.2544 126.28L17.1744 123.68C19.5211 122.427 20.6944 120.44 20.6944 117.72C20.6944 115.587 20.1344 114.213 19.0144 113.6C18.1077 113.12 16.8277 112.88 15.1744 112.88H12.2544V126.28Z" fill="#FFF"/>
<path d="M31.2175 130.76C31.2175 128.04 32.1508 125.76 34.0175 123.92C35.9108 122.08 38.3242 121.16 41.2575 121.16C44.2175 121.16 46.6175 122.027 48.4575 123.76C50.2975 125.493 51.2175 127.773 51.2175 130.6C51.2175 132.28 50.8975 133.773 50.2575 135.08C49.6175 136.36 48.7908 137.36 47.7775 138.08C45.6975 139.493 43.5242 140.2 41.2575 140.2C39.0442 140.2 36.8842 139.467 34.7775 138C33.7375 137.28 32.8842 136.293 32.2175 135.04C31.5508 133.76 31.2175 132.333 31.2175 130.76ZM42.6175 128.2L41.4575 127.96C40.9508 127.96 40.5108 128.187 40.1375 128.64C39.7908 129.067 39.6175 129.587 39.6175 130.2C39.6175 130.787 39.8842 131.373 40.4175 131.96C40.9508 132.547 41.6975 132.84 42.6575 132.84C43.6442 132.84 44.6042 132.373 45.5375 131.44C46.4975 130.48 46.9775 129.133 46.9775 127.4C46.9775 125.667 46.4175 124.333 45.2975 123.4C44.2042 122.44 42.8175 121.96 41.1375 121.96C40.0708 121.96 39.1508 122.173 38.3775 122.6C37.6042 123 37.0175 123.493 36.6175 124.08C36.2175 124.667 35.9108 125.413 35.6975 126.32C35.3775 127.653 35.2175 129.2 35.2175 130.96C35.2175 136.587 37.2708 139.4 41.3775 139.4C43.8042 139.4 45.4042 138.48 46.1775 136.64C46.8442 135.067 47.1775 133.027 47.1775 130.52C46.9375 131.213 46.3775 131.907 45.4975 132.6C44.6442 133.293 43.6975 133.64 42.6575 133.64C41.6175 133.64 40.7108 133.293 39.9375 132.6C39.1908 131.88 38.8175 131.08 38.8175 130.2C38.8175 129.32 39.0575 128.6 39.5375 128.04C40.0175 127.453 40.6975 127.16 41.5775 127.16C42.4842 127.16 42.9375 127.413 42.9375 127.92C42.9375 128.107 42.8308 128.2 42.6175 128.2Z" fill="#FFF"/>
<path d="M59.8747 127.44C59.8747 128.08 60.0347 128.707 60.3547 129.32C60.7014 129.907 61.168 130.2 61.7547 130.2C62.368 130.2 62.8347 130.133 63.1547 130C63.5014 129.84 63.7014 129.76 63.7547 129.76C63.9147 129.76 63.9947 129.867 63.9947 130.08C63.9947 130.293 63.8347 130.507 63.5147 130.72C63.2214 130.907 62.6747 131 61.8747 131C61.1014 131 60.4614 130.68 59.9547 130.04C59.448 129.4 59.1547 128.693 59.0747 127.92V140H55.1147V121.48H59.0747V127.32C59.1814 125.64 60.008 124.187 61.5547 122.96C63.1014 121.707 64.7147 121.08 66.3947 121.08C68.1547 121.08 69.448 121.693 70.2747 122.92C71.128 124.12 71.5547 126.693 71.5547 130.64V140H67.5547V131.68C67.5547 128.533 67.3814 126.187 67.0347 124.64C66.7147 123.093 66.088 122.32 65.1547 122.32C63.9814 122.32 62.808 122.867 61.6347 123.96C60.4614 125.053 59.8747 126.213 59.8747 127.44Z" fill="#FFF"/>
<path d="M80.4819 121.52V140.04H76.4819V121.52H80.4819ZM76.9619 117.76C76.5619 117.333 76.3619 116.827 76.3619 116.24C76.3619 115.653 76.5619 115.16 76.9619 114.76C77.3886 114.333 77.8952 114.12 78.4819 114.12C79.0686 114.12 79.5619 114.333 79.9619 114.76C80.3886 115.16 80.6019 115.653 80.6019 116.24C80.6019 116.827 80.3886 117.333 79.9619 117.76C79.5619 118.16 79.0686 118.36 78.4819 118.36C77.8952 118.36 77.3886 118.16 76.9619 117.76Z" fill="#FFF"/>
<path d="M83.0235 122.28V121.48H86.7035V116H90.7035V121.48H94.9035V122.28H90.7035V134.64C90.7035 137.947 91.4234 139.6 92.8634 139.6C93.4234 139.6 93.9435 139.427 94.4235 139.08C94.9035 138.707 95.2768 138.347 95.5434 138C95.8101 137.627 95.9968 137.44 96.1035 137.44C96.2101 137.44 96.2635 137.507 96.2635 137.64C96.2635 137.747 96.2234 137.88 96.1434 138.04C95.3434 139.613 93.8768 140.4 91.7435 140.4C90.0368 140.4 88.7701 139.747 87.9435 138.44C87.1168 137.133 86.7035 135.387 86.7035 133.2V122.28H83.0235Z" fill="#FFF"/>
<path d="M104.662 140.4C102.742 140.4 101.035 139.867 99.5419 138.8C98.0752 137.707 97.3419 136.2 97.3419 134.28C97.3419 133.16 97.6086 132.187 98.1419 131.36C98.7019 130.533 99.4086 129.92 100.262 129.52C101.835 128.72 103.369 128.32 104.862 128.32C106.355 128.32 108.049 128.72 109.942 129.52C109.915 126.427 109.529 124.373 108.782 123.36C108.062 122.32 106.942 121.8 105.422 121.8C103.902 121.8 102.582 122.08 101.462 122.64C100.369 123.2 99.8219 123.947 99.8219 124.88C99.8219 125.2 99.6752 125.36 99.3819 125.36C99.1152 125.36 98.9819 125.213 98.9819 124.92C98.9819 123.8 99.5952 122.88 100.822 122.16C102.075 121.413 103.915 121.04 106.342 121.04C111.409 121.04 113.942 124.027 113.942 130V140H109.942V136.84C109.755 137.88 109.155 138.733 108.142 139.4C107.129 140.067 105.969 140.4 104.662 140.4ZM108.182 132.92C109.142 133.587 109.729 134.507 109.942 135.68V130.24C108.022 129.467 106.449 129.08 105.222 129.08C104.022 129.08 103.075 129.587 102.382 130.6C101.689 131.613 101.342 132.853 101.342 134.32C101.342 135.787 101.622 137.04 102.182 138.08C102.769 139.093 103.635 139.6 104.782 139.6C105.955 139.6 106.982 139.307 107.862 138.72C108.742 138.107 109.182 137.387 109.182 136.56C109.182 135.12 108.702 134.133 107.742 133.6C107.342 133.36 107.142 133.133 107.142 132.92C107.142 132.707 107.235 132.6 107.422 132.6C107.609 132.6 107.862 132.707 108.182 132.92Z" fill="#FFF"/>
<path d="M42.7456 0C26.4991 0 16 8.98472 16 22.8867C16 30.3767 20.03 34.4584 22.6387 36.3164C21.2775 38.5904 19.5903 42.9144 19.5903 50.3984C19.5903 67.5824 20.8122 83.6279 21.399 91.3359L21.5939 93.9336C21.8614 97.4496 23.7081 100 25.9794 100C28.8535 100 30.3296 98.2755 30.7547 94.4375C31.8984 85.4255 33.7971 73.4144 35.2182 67.8984C36.6392 62.3884 38.3007 59.6478 40.1689 59.7578C41.2407 59.8138 44.5016 59.9846 45.6692 71.9766C46.2221 78.8466 46.1618 86.2277 45.9382 90.5117C45.8205 94.6617 46.418 97.2669 47.8171 98.7109C48.9368 99.8669 50.2425 100 51.1267 100C54.6554 100 55.3488 95.9745 56.0813 91.7305C57.3527 84.7365 61.2207 63.4453 63.9011 63.4453C66.8071 63.4453 68.1853 80.9512 69.0974 92.5352C69.5026 97.6292 71.594 100 75.6776 100C79.7452 100 79.837 95.5816 79.9188 91.6836C79.9428 90.5576 79.9655 89.3463 80.0553 88.1562C81.0512 78.1403 81.2577 59.0636 81.2637 58.2656L81.3105 54.7461V54.7383C81.3165 54.1083 81.2761 53.4988 81.2481 52.8828C81.2581 52.8828 81.2635 52.8867 81.2715 52.8867C80.7666 36.7107 69.8486 29.8321 63.3281 26.0781C56.57 22.3761 49.6394 20.8359 45.7394 20.8359C37.4844 20.8359 32.3127 24.4285 29.5385 27.2305C28.5565 26.5225 27.1762 25.0644 27.1762 22.4844C27.1762 14.6844 34.4815 10.0273 41.5449 10.0273C48.2172 10.0273 50.8206 12.8419 53.3214 16.2539C55.5448 19.2399 58.1671 19.1672 59.7379 18.1992C61.7257 16.9712 62.8748 13.7324 61.0944 10.1484C59.7891 7.51644 53.6171 0 42.7456 0ZM70.111 13.7578C69.4144 13.8138 68.8007 14.2295 68.4893 14.8555C67.1002 17.6475 66.0902 20.2171 65.3318 22.6211C72.1537 26.5471 84.7364 34.4592 85.2633 52.8672C93.2448 52.0932 97.4857 47.7302 99.6671 43.9922C105.03 34.8042 103.082 21.141 99.6866 15.207C99.3833 14.673 98.851 14.3088 98.2443 14.2188C97.6276 14.1327 97.0248 14.3299 96.5798 14.7539C96.5798 14.7539 91.7253 19.3822 88.7834 22.2422C84.0232 20.9462 79.6856 21.6974 77.4942 22.2734C76.1948 20.4954 73.6548 17.0221 71.8924 14.5781C71.4813 14.0101 70.7956 13.6898 70.111 13.7578ZM94.8373 32.1992C94.8373 33.1992 95.0361 37.5992 92.0423 38.1992C89.0484 38.7992 86.0546 36 86.0546 36L90.0464 34.1992L90.8455 38L92.2411 33.3984L94.8373 32.1992ZM35.1597 38C36.2614 38 37.1556 38.896 37.1556 40C37.1556 41.104 36.2614 42 35.1597 42C34.058 42 33.1638 41.104 33.1638 40C33.1638 38.896 34.058 38 35.1597 38Z" fill="#FFF"/>
</svg>
